<svg xmlns="http://www.w3.org/2000/svg" viewBox="0 0 32 32">
  <defs>
    <linearGradient id="g" x1="0" y1="0" x2="1" y2="1">
      <stop offset="0%" stop-color="#3b82f6"/>
      <stop offset="100%" stop-color="#a855f7"/>
    </linearGradient>
  </defs>
  <rect width="32" height="32" rx="8" fill="url(#g)"/>
  <path d="M16 7a2 2 0 1 1 0 4 2 2 0 0 1 0-4z" fill="#fff"/>
  <path d="M16 11v4" stroke="#fff" stroke-width="1.5" stroke-linecap="round"/>
  <circle cx="9" cy="20" r="2" fill="#fff" opacity=".9"/>
  <circle cx="16" cy="18" r="2" fill="#fff" opacity=".9"/>
  <circle cx="23" cy="20" r="2" fill="#fff" opacity=".9"/>
  <path d="M16 15l-7 5M16 15v3M16 15l7 5" stroke="#fff" stroke-width="1.2" stroke-linecap="round" opacity=".6"/>
  <circle cx="6" cy="26" r="1.5" fill="#fff" opacity=".7"/>
  <circle cx="12" cy="25" r="1.5" fill="#fff" opacity=".7"/>
  <circle cx="20" cy="25" r="1.5" fill="#fff" opacity=".7"/>
  <circle cx="26" cy="26" r="1.5" fill="#fff" opacity=".7"/>
  <path d="M9 22l-3 4M9 22l3 3M23 22l-3 3M23 22l3 4" stroke="#fff" stroke-width="1" stroke-linecap="round" opacity=".4"/>
</svg>
